<?xml version="1.0" encoding="UTF-8" standalone="no"?>
<!-- Created with Inkscape (http://www.inkscape.org/) -->

<svg
   xmlns:dc="http://purl.org/dc/elements/1.1/"
   xmlns:cc="http://creativecommons.org/ns#"
   xmlns:rdf="http://www.w3.org/1999/02/22-rdf-syntax-ns#"
   xmlns:svg="http://www.w3.org/2000/svg"
   xmlns="http://www.w3.org/2000/svg"
   xmlns:sodipodi="http://sodipodi.sourceforge.net/DTD/sodipodi-0.dtd"
   xmlns:inkscape="http://www.inkscape.org/namespaces/inkscape"
   width="1000"
   height="1000"
   id="svg2"
   version="1.1"
   inkscape:version="0.48.4 r9939"
   sodipodi:docname="Glynda Goodwitch Emblem.svg">
  <defs
     id="defs4" />
  <sodipodi:namedview
     id="base"
     pagecolor="#ffffff"
     bordercolor="#666666"
     borderopacity="1.0"
     inkscape:pageopacity="0.0"
     inkscape:pageshadow="2"
     inkscape:zoom="0.7"
     inkscape:cx="588.12522"
     inkscape:cy="445.0522"
     inkscape:document-units="px"
     inkscape:current-layer="layer1"
     showgrid="false"
     inkscape:window-width="1920"
     inkscape:window-height="1018"
     inkscape:window-x="1912"
     inkscape:window-y="-8"
     inkscape:window-maximized="1"
     showguides="true"
     inkscape:guide-bbox="true" />
  <metadata
     id="metadata7">
    <rdf:RDF>
      <cc:Work
         rdf:about="">
        <dc:format>image/svg+xml</dc:format>
        <dc:type
           rdf:resource="http://purl.org/dc/dcmitype/StillImage" />
        <dc:title />
      </cc:Work>
    </rdf:RDF>
  </metadata>
  <g
     inkscape:label="Layer 1"
     inkscape:groupmode="layer"
     id="layer1"
     transform="translate(0,-52.362183)">
    <path
       style="fill:#420d2c;fill-opacity:0.98823529;stroke:none"
       d="m 500,195.45368 c -61.51352,185.123 -91.66127,351.55 -145.64369,219.864 l 0,151.983 c 99.81651,-16.981 196.63461,-17.342 291.28738,0 -2.24188,-50.333 -1.14795,-101.166 0,-151.983 -53.98242,131.686 -84.13017,-34.741 -145.64369,-219.864 z m 0,60.436 c 18.15789,61.709 40.51667,149.288 45.54616,179.649 5.02951,30.361 -14.89194,52.951 -45.54616,79.226 -30.65422,-26.275 -50.57567,-48.865 -45.54616,-79.226 5.02949,-30.361 27.38827,-117.94 45.54616,-179.649 z m -242.55527,148.277 c -0.3567,0 -0.72,0 -1.07282,0.1 -11.28988,1.706 -16.14693,32.309 -10.85826,68.335 5.28867,36.026 18.71662,63.833 30.00651,62.126 11.28989,-1.706 16.14692,-32.276 10.85825,-68.303 -5.12341,-34.9 -17.87618,-62.109 -28.93368,-62.223 z m 485.11054,0 c -11.0575,0.11 -23.81027,27.323 -28.93368,62.223 -5.28867,36.027 -0.4316,66.597 10.85825,68.303 11.28989,1.707 24.71784,-26.1 30.00651,-62.126 5.28867,-36.026 0.4316,-66.629 -10.85826,-68.335 -0.3528,-0.1 -0.7161,-0.1 -1.07282,-0.1 z M 0,408.91268 c 40.75944,114.343 79.38345,228.701 113.23147,343.043 2.4939,-86.28 94.6144,-153.64 231.79454,-181.859 l -1.07282,-56.307 c -52.71765,70.347 -106.436,41.051 -147.88687,4.811 -15.89656,22.822 -10.6572,39.201 -9.6554,56.86 0,38.901 -24.10962,32.327 -45.6762,10.76 C 89.48801,538.55968 121.94012,481.75568 0,408.91268 z m 1000,0 c -121.9401,72.843 -89.488,129.647 -140.7347,177.308 -21.5666,21.567 -45.6762,28.141 -45.6762,-10.76 1.0018,-17.659 6.2411,-34.038 -9.65542,-56.86 -41.45087,36.24 -95.16922,65.536 -147.88687,-4.811 l -1.07282,56.307 c 137.18014,28.22 229.30061,95.579 231.79451,181.859 33.848,-114.342 72.4721,-228.701 113.2315,-343.043 z m -842.81534,142.686 c -1.42968,0 -2.82246,0.34 -4.12874,0.94 -6.96686,3.234 -8.8513,13.931 -4.22627,23.895 4.62495,9.964 14.00195,15.425 20.96879,12.191 6.96686,-3.233 8.88374,-13.93 4.25878,-23.895 -3.75782,-8.095 -10.67729,-13.233 -16.87256,-13.133 z m 685.63064,0 c -6.1952,-0.1 -13.1147,5.038 -16.8725,13.133 -4.625,9.965 -2.7081,20.662 4.2588,23.895 6.9667,3.234 16.3438,-2.227 20.9688,-12.191 4.625,-9.964 2.7405,-20.661 -4.2263,-23.895 -1.3062,-0.61 -2.6991,-0.92 -4.1288,-0.94 z M 500,562.84668 c -291.32766,0 -523.44817,166.496 -263.39402,346.424 -196.66674,-181.9 77.42801,-287.354 263.39402,-287.354 185.96601,0 460.0607,105.454 263.39402,287.354 C 1023.4482,729.34268 791.32766,562.84668 500,562.84668 z"
       id="path3008"
       inkscape:connector-curvature="0" />
  </g>
</svg>
