<?xml version="1.0" encoding="UTF-8" standalone="no"?>
<!-- Created with Inkscape (http://www.inkscape.org/) -->

<svg
   xmlns:dc="http://purl.org/dc/elements/1.1/"
   xmlns:cc="http://creativecommons.org/ns#"
   xmlns:rdf="http://www.w3.org/1999/02/22-rdf-syntax-ns#"
   xmlns:svg="http://www.w3.org/2000/svg"
   xmlns="http://www.w3.org/2000/svg"
   xmlns:sodipodi="http://sodipodi.sourceforge.net/DTD/sodipodi-0.dtd"
   xmlns:inkscape="http://www.inkscape.org/namespaces/inkscape"
   width="1000"
   height="1000"
   id="svg2"
   version="1.1"
   inkscape:version="0.48.4 r9939"
   sodipodi:docname="Nora Valkyrie Emblem.svg">
  <defs
     id="defs4" />
  <sodipodi:namedview
     id="base"
     pagecolor="#ffffff"
     bordercolor="#666666"
     borderopacity="1.0"
     inkscape:pageopacity="0.0"
     inkscape:pageshadow="2"
     inkscape:zoom="0.35"
     inkscape:cx="432.15744"
     inkscape:cy="579.76401"
     inkscape:document-units="px"
     inkscape:current-layer="layer1"
     showgrid="false"
     inkscape:window-width="1920"
     inkscape:window-height="1018"
     inkscape:window-x="1912"
     inkscape:window-y="-8"
     inkscape:window-maximized="1"
     showguides="true"
     inkscape:guide-bbox="true" />
  <metadata
     id="metadata7">
    <rdf:RDF>
      <cc:Work
         rdf:about="">
        <dc:format>image/svg+xml</dc:format>
        <dc:type
           rdf:resource="http://purl.org/dc/dcmitype/StillImage" />
        <dc:title />
      </cc:Work>
    </rdf:RDF>
  </metadata>
  <g
     inkscape:label="Layer 1"
     inkscape:groupmode="layer"
     id="layer1"
     transform="translate(0,-52.362183)">
    <g
       id="g3840"
       transform="matrix(2,0,0,2,-825.82066,-226.23262)">
      <g
         transform="matrix(2.060017,2.0039884,-2.0039751,2.0600307,739.8,-1750.5563)"
         id="g3836">
        <path
           inkscape:connector-curvature="0"
           style="fill:#f2a8cb;fill-opacity:1;stroke:none"
           d="m 500,413 c -48.04098,0 -87,38.95902 -87,87 0,45.6937 35.25077,83.13552 80.03125,86.6875 l 0,-57.1875 -42.53125,0 0,-29.09375 -27.25,-4.84375 c 0.43348,0 14.58189,0.59745 27.25,1.15625 l 0,-26.21875 99,0 0,25.59375 30.59375,3.375 -30.59375,0.90625 0,29.125 -42.53125,0 0,57.1875 C 551.74923,583.13552 587,545.6937 587,500 c 0,-48.04098 -38.95902,-87 -87,-87 z"
           transform="translate(0,52.362183)"
           id="path3006" />
        <path
           style="fill:#f2a8cb;fill-opacity:1;stroke:none"
           d="m 486.46875,541.12781 7.40625,9.5 c 0,0 -22.82639,-0.99986 -43.375,-1.90625 l 0,3.65625 62.96875,11.21875 -7.25,-10 43.28125,-1.25 0,-4.28125 -63.03125,-6.9375 z"
           id="path3787-7"
           inkscape:connector-curvature="0" />
      </g>
    </g>
  </g>
</svg>
