<?xml version="1.0" encoding="UTF-8" standalone="no"?>
<!-- Created with Inkscape (http://www.inkscape.org/) -->

<svg
   xmlns:dc="http://purl.org/dc/elements/1.1/"
   xmlns:cc="http://creativecommons.org/ns#"
   xmlns:rdf="http://www.w3.org/1999/02/22-rdf-syntax-ns#"
   xmlns:svg="http://www.w3.org/2000/svg"
   xmlns="http://www.w3.org/2000/svg"
   xmlns:sodipodi="http://sodipodi.sourceforge.net/DTD/sodipodi-0.dtd"
   xmlns:inkscape="http://www.inkscape.org/namespaces/inkscape"
   width="1000"
   height="1000"
   id="svg2"
   version="1.1"
   inkscape:version="0.48.4 r9939"
   sodipodi:docname="Pyrrha Nikos Emblem.svg">
  <defs
     id="defs4" />
  <sodipodi:namedview
     id="base"
     pagecolor="#ffffff"
     bordercolor="#666666"
     borderopacity="1.0"
     inkscape:pageopacity="0.0"
     inkscape:pageshadow="2"
     inkscape:zoom="0.7"
     inkscape:cx="843.71709"
     inkscape:cy="450.8008"
     inkscape:document-units="px"
     inkscape:current-layer="layer1"
     showgrid="false"
     inkscape:window-width="1920"
     inkscape:window-height="1058"
     inkscape:window-x="-8"
     inkscape:window-y="-8"
     inkscape:window-maximized="1"
     showguides="true"
     inkscape:guide-bbox="true" />
  <metadata
     id="metadata7">
    <rdf:RDF>
      <cc:Work
         rdf:about="">
        <dc:format>image/svg+xml</dc:format>
        <dc:type
           rdf:resource="http://purl.org/dc/dcmitype/StillImage" />
        <dc:title />
      </cc:Work>
    </rdf:RDF>
  </metadata>
  <g
     inkscape:label="Layer 1"
     inkscape:groupmode="layer"
     id="layer1"
     transform="translate(0,-52.362183)">
    <path
       style="fill:#c03c4a;fill-opacity:1;stroke:none"
       d="M -5.3950387e-6,53.478158 66.980385,185.52968 l 49.788395,-2.14872 -6.835,-6.80674 -2.8988,-16.50065 16.5124,2.83076 6.835,6.80674 1.9438,-49.79668 z"
       id="path3015" />
    <path
       style="fill:#c03c4a;fill-opacity:1;stroke:none"
       d="m 76.157785,203.65444 14.5194,28.61794 72.158995,-3.0132 -28.16,-28.0441 z"
       id="path3013" />
    <path
       style="fill:#c03c4a;fill-opacity:1;stroke:none"
       d="m 150.48858,129.01705 -2.1986,58.52797 28.15999,28.0441 2.7162,-72.17091 z"
       id="path3011" />
    <path
       style="fill:#c03c4a;fill-opacity:1;stroke:none"
       d="m 99.854385,250.39716 18.491995,36.65855 98.34919,-4.15863 -35.8152,-35.66798 z"
       id="path3009" />
    <path
       style="fill:#c03c4a;fill-opacity:1;stroke:none"
       d="m 197.32837,152.52103 -2.8344,81.03837 35.815,35.6679 3.7538,-98.36547 z"
       id="path3007" />
    <path
       style="fill:#c03c4a;fill-opacity:1;stroke:none"
       d="m 127.52358,305.18049 23.1488,45.65252 115.19619,28.68348 568.80314,566.46595 c 11.0996,-9.096 21.8378,-18.82286 32.2712,-29.12352 10.2576,-10.4758 19.9402,-21.25388 28.9904,-32.39076 L 327.13016,318.00203 297.97256,202.925 l -45.74739,-22.96054 -3.8718,107.23281 605.84834,603.35911 c 0,0 -3.7992,5.21458 -6.107,7.53184 -2.3084,2.31676 -7.5066,6.13804 -7.5066,6.13804 L 234.73977,300.86715 z"
       id="path3005" />
    <path
       style="fill:#c03c4a;fill-opacity:1;stroke:none"
       d="M 137.09978,384.41985 C 47.956795,556.69551 75.940185,773.85659 220.73137,918.05288 380.17636,1076.8427 627.45933,1093.6254 805.38811,968.55189 L 239.59357,405.62647 z"
       id="path3003" />
    <path
       style="fill:#c03c4a;fill-opacity:1;stroke:none"
       d="m 331.50336,189.21416 21.6286,102.40561 565.24995,563.47211 C 1042.7221,676.64944 1024.9213,429.43774 865.47611,270.64798 720.68492,126.45169 503.41034,99.362828 331.50336,189.21416 z"
       id="path2984" />
  </g>
</svg>
