<?xml version="1.0" encoding="UTF-8" standalone="no"?>
<!-- Created with Inkscape (http://www.inkscape.org/) -->

<svg
   xmlns:dc="http://purl.org/dc/elements/1.1/"
   xmlns:cc="http://creativecommons.org/ns#"
   xmlns:rdf="http://www.w3.org/1999/02/22-rdf-syntax-ns#"
   xmlns:svg="http://www.w3.org/2000/svg"
   xmlns="http://www.w3.org/2000/svg"
   xmlns:sodipodi="http://sodipodi.sourceforge.net/DTD/sodipodi-0.dtd"
   xmlns:inkscape="http://www.inkscape.org/namespaces/inkscape"
   width="1000"
   height="1000"
   id="svg2"
   version="1.1"
   inkscape:version="0.48.4 r9939"
   sodipodi:docname="Weiss Schnee Emblem.svg">
  <defs
     id="defs4" />
  <sodipodi:namedview
     id="base"
     pagecolor="#ffffff"
     bordercolor="#666666"
     borderopacity="1.0"
     inkscape:pageopacity="0.0"
     inkscape:pageshadow="2"
     inkscape:zoom="0.24748737"
     inkscape:cx="280.66569"
     inkscape:cy="-132.25768"
     inkscape:document-units="px"
     inkscape:current-layer="layer1"
     showgrid="false"
     inkscape:window-width="1920"
     inkscape:window-height="1018"
     inkscape:window-x="1912"
     inkscape:window-y="-8"
     inkscape:window-maximized="1"
     showguides="true"
     inkscape:guide-bbox="true" />
  <metadata
     id="metadata7">
    <rdf:RDF>
      <cc:Work
         rdf:about="">
        <dc:format>image/svg+xml</dc:format>
        <dc:type
           rdf:resource="http://purl.org/dc/dcmitype/StillImage" />
        <dc:title />
      </cc:Work>
    </rdf:RDF>
  </metadata>
  <g
     inkscape:label="Layer 1"
     inkscape:groupmode="layer"
     id="layer1"
     transform="translate(0,-52.362183)">
    <path
       style="fill:#ffffff;fill-opacity:1;stroke:none"
       d="m 500.00195,52.362183 -55.98958,149.934867 36.45839,19.336 -5.2084,48.17699 24.73959,-16.4062 24.7396,16.4062 -5.2083,-48.17699 36.45829,-19.336 z M 258.2377,535.50018 l 29.78515,16.8619 -29.78515,16.862 -103.32029,-16.862 z m 348.04683,234.66806 -0.293,-34.212 29.4922,17.35 37.06049,97.89998 z m 29.1992,-418.75012 -29.4922,17.3503 0.293,-34.2123 66.25969,-81.03838 z m 92.02468,-193.09886 -110.02598,109.89578 9.5703,20.54039 -51.79039,42.12239 c 0,0 14.1192,14.9287 14.4857,19.6289 0.366,4.7005 -22.168,24.9023 -22.168,24.9023 l -38.44399,-22.168 c 1.7011,-20.6207 30.36749,-33.86719 47.39589,-36.29549 l -45.24739,-31.3151 -31.2826,23.5677 -31.28249,-23.5677 -45.24739,31.3151 c 17.0284,2.4283 45.66209,15.70729 47.36329,36.32809 l -38.41149,22.1354 c 0,0 -22.53451,-20.2022 -22.16797,-24.9023 0.3666,-4.7002 14.48567,-19.5964 14.48567,-19.5964 l -51.8229,-42.18749 9.60286,-20.50779 -110.02602,-109.89578 40.16926,150.22777 22.55859,1.9532 10.61197,65.95049 c 0,0 19.96506,-4.767 24.21875,-2.7344 4.2537,2.0326 10.48177,31.64059 10.48177,31.64059 l -38.37889,22.20049 c -17.00757,-11.78349 -14.19117,-43.21849 -7.77995,-59.17958 l -49.73957,23.53509 4.78515,38.86719 -36.0677,15.2995 4.49218,54.85019 c 10.61719,-13.5328 36.43457,-31.72129 55.14322,-22.8841 l -0.033,44.3685 c 0,0 -28.76258,9.40579 -32.64973,6.73829 -3.88716,-2.66749 -9.73307,-22.36329 -9.73307,-22.36329 l -62.40234,23.79559 -12.98828,-18.55469 -150.195278,40.33199 150.195278,40.33209 12.98828,-18.55469 62.40234,23.79549 c 0,0 5.84591,-19.6957 9.73307,-22.36319 3.88714,-2.6675 32.64973,6.73819 32.64973,6.73819 l 0.032,44.3685 c -18.70866,8.83719 -44.52603,-9.3512 -55.14322,-22.8841 l -4.49219,54.85029 36.06771,15.2995 -4.7851,38.86709 49.73957,23.53499 c -6.41122,-15.96099 -9.22762,-47.39589 7.77995,-59.17948 l 38.37889,22.20049 c 0,0 -6.22808,29.60799 -10.48177,31.64099 -4.25369,2.032 -24.21875,-2.7347 -24.21875,-2.7347 l -10.61197,65.95069 -22.55859,1.953 -40.16926,150.22797 110.02602,-109.89598 -9.57031,-20.50799 51.79035,-42.15499 c 0,0 -14.11913,-14.929 -14.48567,-19.629 -0.3666,-4.7 22.16797,-24.902 22.16797,-24.902 l 38.41149,22.168 c -1.7011,20.621 -30.33489,33.86699 -47.36329,36.29499 l 45.24739,31.316 31.28249,-23.568 31.2826,23.568 45.24739,-31.316 c -17.0284,-2.428 -45.66219,-15.67399 -47.36329,-36.29499 l 38.41139,-22.168 c 0,0 22.5346,20.202 22.168,24.902 -0.366,4.7 -14.4857,19.629 -14.4857,19.629 l 51.79039,42.15499 -9.5703,20.50799 110.02598,109.89598 -40.16919,-150.22797 -22.5586,-1.986 -10.612,-65.91769 c 0,0 -19.96509,4.7667 -24.21879,2.7347 -4.2538,-2.034 -10.4817,-31.64099 -10.4817,-31.64099 l 38.41139,-22.20049 c 17.0076,11.78359 14.1586,43.21849 7.7474,59.17948 l 49.73959,-23.53499 -4.7852,-38.86709 36.06779,-15.2995 -4.49219,-54.85029 c -10.6172,13.5329 -36.4346,31.68879 -55.14329,22.8516 l 0.03,-44.336 c 0,0 28.76259,-9.40569 32.64979,-6.73819 3.8871,2.66749 9.7331,22.36319 9.7331,22.36319 l 62.43479,-23.79549 12.95579,18.55469 150.19527,-40.33209 -150.19527,-40.33199 -12.98829,18.55469 -62.40229,-23.79559 c 0,0 -5.8459,19.6958 -9.7331,22.36329 -3.8871,2.6675 -32.64969,-6.73829 -32.64969,-6.73829 l -0.03,-44.3685 c 18.70869,-8.83719 44.52599,9.3513 55.14319,22.8841 l 4.49219,-54.85019 -36.06769,-15.2995 4.7851,-38.86719 -49.73959,-23.53509 c 6.4112,15.96109 9.2276,47.39609 -7.7799,59.17958 l -38.37889,-22.20049 c 0,0 6.228,-29.60799 10.4817,-31.64059 4.2537,-2.0326 24.21879,2.7344 24.21879,2.7344 l 10.612,-65.95049 22.5586,-1.9532 40.16919,-150.22777 m -400.03244,95.18228 66.24348,81.05458 0.293,34.2123 -29.49219,-17.3503 z m -260.481721,48.86059 101.855451,123.47008 34.96092,-21.9076 39.12761,28.58079 -1.82292,-29.62239 26.56249,-13.2162 -44.33593,-19.59629 1.4974,-41.2435 z m 866.015421,0 -157.84497,26.46489 1.4974,41.2435 -44.33599,19.59629 26.56249,13.2162 -1.8229,29.62239 39.12759,-28.58079 34.961,21.9076 z m -433.04022,57.19399 51.36719,30.40369 -16.69929,13.9648 2.9297,16.7318 c 17.75229,-20.6235 15.08449,9.28359 0,23.63279 l 3.3203,37.23959 0.03,0 33.88679,-15.72269 c 4.8844,-20.2382 29.45959,-37.502 20.47519,-11.8164 l 15.9831,-5.8268 3.7109,-21.45179 51.98569,29.26429 -0.651,59.63539 -20.4427,-7.487 -13.02089,10.905 c 26.73659,5.0621 -0.506,17.70549 -20.4752,11.81639 l -30.59889,21.5169 30.59889,21.517 c 19.9691,-5.8891 47.21179,6.75439 20.4753,11.81639 l 13.02079,10.9375 20.4427,-7.5196 0.684,59.63539 -52.01819,29.26439 -3.7435,-21.45189 -15.9505,-5.8268 c 8.9843,25.6857 -15.59069,8.4217 -20.47529,-11.8164 l -33.91929,-15.75519 0,0.03 -3.3203,37.23959 c 15.08459,14.3492 17.75229,44.25629 0,23.63279 l -2.9622,16.7318 16.73179,13.9649 -51.33469,30.40379 -51.33459,-30.40379 16.7318,-13.9649 -2.9623,-16.7317 c -17.75219,20.6234 -15.0846,-9.28359 0,-23.63289 l -3.3203,-37.23949 -33.91929,15.72259 c -4.8844,20.2383 -29.45957,37.5021 -20.47523,11.8164 l -15.98306,5.8268 -3.71094,21.45189 -51.98566,-29.23179 0.651,-59.66799 20.4427,7.487 13.02083,-10.9049 c -26.73657,-5.0622 0.5062,-17.70549 20.47526,-11.81639 l 30.59896,-21.517 -30.59896,-21.5169 c -19.96908,5.889 -47.21183,-6.75429 -20.47526,-11.81639 l -13.02083,-10.905 -20.4427,7.487 -0.651,-59.66789 51.98566,-29.23179 3.71094,21.45179 15.98306,5.8268 c -8.98434,-25.6856 15.59083,-8.4218 20.47523,11.8164 l 33.91929,15.72269 3.3203,-37.23959 c -15.0846,-14.3492 -17.75209,-44.25629 0,-23.63279 l 2.9623,-16.7643 -16.7318,-13.9323 z m 68.71739,232.45445 0,-79.29688 m 173.07937,22.78649 103.32037,16.8619 -103.32037,16.862 -29.7851,-16.862 z m -498.82798,136.71868 -39.12761,28.58069 -34.96092,-21.9075 -101.855451,123.47018 157.845021,-26.46499 -1.4974,-41.244 44.33593,-19.59589 -26.56249,-13.2161 z m 514.12747,0 1.8229,29.62239 -26.56249,13.2161 44.33599,19.59589 -1.4974,41.244 157.84497,26.46499 -101.85538,-123.47018 -34.961,21.9075 z m -363.05328,63.73738 -0.293,34.212 -66.27603,81.02198 37.07681,-97.88398 z m 81.24994,98.95798 5.2084,48.17699 -36.45839,19.336 55.98958,149.93499 55.98959,-149.93499 -36.45829,-19.336 5.2083,-48.17699 -24.7396,16.374 z m 93.42448,-242.90365 -68.68489,39.64839 -68.68488,-39.64839 0,-79.29688 68.68488,-39.64839 68.68489,39.64839"
       id="path3767"
       inkscape:connector-curvature="0"
       sodipodi:nodetypes="ccccccccccccccccccccccccccccccccccccccscccccccscccccccccscccccccscccccccccscccccccscccccccccscccccccccccccccccscccccccscccccccccscccccccccccccccccccccccccccccccccccccccccccccccccccccccccccccccccccccccccccccccccccccccccccccccccccccccccccccccccccccccccccccccccccccc" />
  </g>
</svg>
