<?xml version="1.0" encoding="UTF-8" standalone="no"?>
<!-- Created with Inkscape (http://www.inkscape.org/) -->

<svg
   xmlns:dc="http://purl.org/dc/elements/1.1/"
   xmlns:cc="http://creativecommons.org/ns#"
   xmlns:rdf="http://www.w3.org/1999/02/22-rdf-syntax-ns#"
   xmlns:svg="http://www.w3.org/2000/svg"
   xmlns="http://www.w3.org/2000/svg"
   xmlns:sodipodi="http://sodipodi.sourceforge.net/DTD/sodipodi-0.dtd"
   xmlns:inkscape="http://www.inkscape.org/namespaces/inkscape"
   width="1000"
   height="1000"
   id="svg2"
   version="1.1"
   inkscape:version="0.48.4 r9939"
   sodipodi:docname="Yang Xiao Long Emblem.svg">
  <defs
     id="defs4" />
  <sodipodi:namedview
     id="base"
     pagecolor="#ffffff"
     bordercolor="#666666"
     borderopacity="1.0"
     inkscape:pageopacity="0.0"
     inkscape:pageshadow="2"
     inkscape:zoom="0.49497475"
     inkscape:cx="305.35323"
     inkscape:cy="399.28502"
     inkscape:document-units="px"
     inkscape:current-layer="layer1"
     showgrid="false"
     inkscape:window-width="1920"
     inkscape:window-height="1018"
     inkscape:window-x="1912"
     inkscape:window-y="-8"
     inkscape:window-maximized="1" />
  <metadata
     id="metadata7">
    <rdf:RDF>
      <cc:Work
         rdf:about="">
        <dc:format>image/svg+xml</dc:format>
        <dc:type
           rdf:resource="http://purl.org/dc/dcmitype/StillImage" />
        <dc:title />
      </cc:Work>
    </rdf:RDF>
  </metadata>
  <g
     inkscape:label="Layer 1"
     inkscape:groupmode="layer"
     id="layer1"
     transform="translate(0,-52.362183)">
    <g
       id="g3765"
       transform="matrix(1.0542097,0,0,1.0542097,-26.161442,-32.069832)">
      <path
         sodipodi:nodetypes="czzccczccszcccccccccczzzccscccccczc"
         transform="translate(0,52.362183)"
         inkscape:connector-curvature="0"
         id="path2993"
         d="M 614.28571,976.30602 C 440.01719,947.91335 263.15161,751.64378 210.71429,656.42857 158.27697,561.21336 180.5651,531.50722 174.28571,487.85714 168.00632,444.20706 107.6646,401.0295 163.57143,321.42857 c 44.73575,-64.08579 -49.2004,-64.1869 -36.79729,-177.02778 13.39776,94.98493 45.03674,65.30458 73.23606,114.14724 33.63001,51.4204 -37.13398,71.68112 -12.12183,108.5914 25.01215,36.91028 51.02582,9.70889 59.09393,5.05076 7.88501,-5.74626 26.61001,-17.73687 9.59645,-39.39595 -32.58569,-42.77802 -12.48796,-113.81991 20.2739,-138.5659 37.29661,-28.17121 57.82912,-33.41949 47.40632,-75.08136 -10.4228,-41.661868 -19.73893,-45.584411 -100.0051,-85.862966 128.10165,24.63016 214.37606,86.608546 126.36097,189.082356 -51.64491,60.1289 -10.90705,131.38854 56.98171,131.38854 39.85683,0.91014 62.12438,52.78047 62.12438,52.78047 -25.86567,-9.2735 -56.27037,-6.22797 -72.2259,-4.54569 -37.53465,10.05738 -22.3902,42.27074 -67.17515,37.37565 -38.25868,-4.18176 -40.01748,74.60335 18.51361,74.60335 231.25239,0 140.36558,209.71555 127.70597,234.25079 -5.51195,9.92663 -75.04846,-47.74646 -87.63073,-74.49875 -9.8049,-16.98258 22.8357,-17.53638 20.32932,-22.98098 -14.28285,-29.97996 -97.98606,-11.5681 -51.64405,42.55268 46.342,54.12079 69.87535,75.00652 105.05587,98.61615 35.18052,23.60963 41.70591,37.05444 98.48987,-6.06092 56.78396,-43.11536 128.0179,-138.06933 188.89853,-209.60665 27.09206,-35.24051 -5.20075,-64.90232 -49.49748,-76.77159 -45.78345,-12.26764 -54.15894,-6.18291 -70.9155,-9.74024 -78.25909,-16.61397 -56.63249,-90.48859 -18.483,-114.50853 45.37131,-26.19514 14.85999,-52.47204 42.42641,-108.08632 30.56776,-67.25937 158.60975,-115.9209 28.78934,-217.687876 164.26342,47.715771 64.70773,164.861256 31.81981,240.416306 -34.05006,73.24433 22.96192,49.19622 51.60969,43.8296 105.97939,-28.39709 122.24757,151.21728 95.36751,204.16285 -71.04181,123.04802 -32.57586,82.44743 -98.48988,198.49498 -65.91402,116.04755 -168.49252,109.92742 -148.37946,239.95583 z"
         style="fill:#dcd02e;fill-opacity:1;stroke:none" />
      <path
         sodipodi:nodetypes="cccccccsccccc"
         transform="translate(0,52.362183)"
         inkscape:connector-curvature="0"
         id="path2995"
         d="m 495,752.85714 c 47.67856,-98.37735 52.71021,-244.32791 -69.46428,-258.21429 -109.70863,-12.4695 -38.34352,-88.27003 30.54815,-77.50087 -3.76268,60.5824 33.7025,7.06753 44.03355,-3.20903 27.17737,-27.17737 24.77162,-47.31568 -9.06599,-96.76544 -81.99601,-119.82772 -48.2102,-207.05086 106.4538,-289.439335 -65.86356,97.249975 -89.76886,150.822555 -64.14469,205.566045 18.17852,38.8366 22.51194,44.85987 32.02418,39.78186 7.2674,-3.87963 14.28767,-11.38753 21.93759,-3.73761 37.72644,37.72644 -0.0107,99.74125 -16.08104,119.51924 -43.82591,53.93704 -0.36301,100.19805 18.18274,104.55078 122.03203,32.69839 142.59771,39.07272 96.97464,106.06603 C 643.85333,669.29112 592.19796,731.09717 495,752.85714 z"
         style="fill:#dcd02e;fill-opacity:1;stroke:none" />
    </g>
  </g>
</svg>
